<?xml version="1.0" encoding="utf-8"?>
<!-- Generator: Adobe Illustrator 21.1.0, SVG Export Plug-In . SVG Version: 6.00 Build 0)  -->
<svg version="1.1" id="Icons" xmlns="http://www.w3.org/2000/svg" xmlns:xlink="http://www.w3.org/1999/xlink" x="0px" y="0px"
	 viewBox="0 0 48 48" style="enable-background:new 0 0 48 48;" xml:space="preserve">
<style type="text/css">
	.st0{fill:#FFE500;}
	.st1{fill:#EBCB00;}
	.st2{fill:#FFF48C;}
	.st3{opacity:0.15;fill:#45413C;}
	.st4{fill:none;stroke:#45413C;stroke-linecap:round;stroke-linejoin:round;stroke-miterlimit:10;}
	.st5{fill:#FFAA54;}
	.st6{fill:#FFB0CA;stroke:#45413C;stroke-linecap:round;stroke-linejoin:round;stroke-miterlimit:10;}
	.st7{fill:#FF87AF;stroke:#45413C;stroke-linecap:round;stroke-linejoin:round;stroke-miterlimit:10;}
	.st8{fill:#00B8F0;}
	.st9{fill:#4ACFFF;}
	.st10{fill:#FFFFFF;stroke:#45413C;stroke-linecap:round;stroke-linejoin:round;stroke-miterlimit:10;}
	.st11{fill:#45413C;stroke:#45413C;stroke-linecap:round;stroke-linejoin:round;stroke-miterlimit:10;}
	.st12{fill:#009FD9;}
	.st13{fill:none;stroke:#45413C;stroke-linecap:round;stroke-miterlimit:10;}
	.st14{fill:#FFFFFF;stroke:#45413C;stroke-linejoin:round;stroke-miterlimit:10;}
	.st15{fill:#FF6242;}
	.st16{fill:#FF866E;}
	.st17{fill:#656769;}
	.st18{fill:#87898C;}
	.st19{fill:#4AEFF7;stroke:#45413C;stroke-linecap:round;stroke-linejoin:round;stroke-miterlimit:10;}
	.st20{fill:none;stroke:#48CF3E;stroke-linecap:round;stroke-linejoin:round;stroke-miterlimit:10;}
	.st21{fill:none;stroke:#FF4064;stroke-linecap:round;stroke-linejoin:round;stroke-miterlimit:10;}
	.st22{fill:none;stroke:#FFB700;stroke-linecap:round;stroke-linejoin:round;stroke-miterlimit:10;}
	.st23{fill:none;stroke:#00AED9;stroke-linecap:round;stroke-linejoin:round;stroke-miterlimit:10;}
	.st24{fill:#FFFACF;}
	.st25{fill:#45413C;}
	.st26{fill:#FF866E;stroke:#45413C;stroke-linecap:round;stroke-linejoin:round;stroke-miterlimit:10;}
	.st27{fill:#DABFF5;stroke:#45413C;stroke-linejoin:round;stroke-miterlimit:10;}
	.st28{fill:#EDDBFF;}
	.st29{fill:none;stroke:#45413C;stroke-linejoin:round;stroke-miterlimit:10;}
	.st30{fill:#6DD627;}
	.st31{fill:#46B000;}
	.st32{fill:#C8FFA1;}
	.st33{fill:url(#XMLID_91_);}
	.st34{fill:url(#XMLID_92_);}
	.st35{fill:#F0F0F0;stroke:#45413C;stroke-linecap:round;stroke-linejoin:round;stroke-miterlimit:10;}
	.st36{fill:#EBCB00;stroke:#45413C;stroke-linecap:round;stroke-linejoin:round;stroke-miterlimit:10;}
	.st37{fill:#BDBEC0;stroke:#45413C;stroke-linecap:round;stroke-linejoin:round;stroke-miterlimit:10;}
	.st38{fill:#F0F0F0;}
	.st39{fill:#FFFFFF;}
	.st40{fill:url(#XMLID_93_);}
	.st41{fill:url(#XMLID_94_);}
	.st42{fill:#FFE500;stroke:#45413C;stroke-linecap:round;stroke-linejoin:round;stroke-miterlimit:10;}
	.st43{fill:#E04122;}
	.st44{fill:#8CFFE4;stroke:#45413C;stroke-linecap:round;stroke-linejoin:round;stroke-miterlimit:10;}
	.st45{fill:#E5FFF9;}
	.st46{fill:#E0E0E0;}
	.st47{fill:#9CEB60;}
	.st48{fill:#6DD627;stroke:#45413C;stroke-linecap:round;stroke-linejoin:round;stroke-miterlimit:10;}
	.st49{fill:#E8F4FA;}
	.st50{fill:#F0D5A8;}
	.st51{fill:#DEBB7E;}
	.st52{fill:#B89558;}
	.st53{fill:#00B8F0;stroke:#45413C;stroke-linecap:round;stroke-linejoin:round;stroke-miterlimit:10;}
	.st54{fill:#FFFCE5;}
	.st55{fill:#FF87AF;}
	.st56{fill:#4ACFFF;stroke:#45413C;stroke-linecap:round;stroke-linejoin:round;stroke-miterlimit:10;}
	.st57{fill:#E5F8FF;}
	.st58{fill:none;stroke:#45413C;stroke-miterlimit:10;}
	.st59{fill:none;stroke:#FF6242;stroke-linecap:round;stroke-linejoin:round;stroke-miterlimit:10;}
	.st60{fill:#BDBEC0;}
	.st61{fill:#B89558;stroke:#45413C;stroke-linecap:round;stroke-linejoin:round;stroke-miterlimit:10;}
	.st62{fill:#FF6242;stroke:#45413C;stroke-linecap:round;stroke-linejoin:round;stroke-miterlimit:10;}
	.st63{fill:#525252;stroke:#45413C;stroke-linecap:round;stroke-linejoin:round;stroke-miterlimit:10;}
	.st64{fill:#525252;}
	.st65{fill:#00DBA8;}
	.st66{fill:#00AD85;}
	.st67{fill:#BF8DF2;}
	.st68{fill:#DABFF5;}
	.st69{fill:#00F5BC;}
	.st70{fill:#DAEDF7;}
	.st71{fill:#C0DCEB;}
	.st72{fill:#ADC4D9;}
	.st73{fill:#ADC4D9;stroke:#45413C;stroke-linecap:round;stroke-linejoin:round;stroke-miterlimit:10;}
	.st74{fill:#00DFEB;stroke:#45413C;stroke-linecap:round;stroke-linejoin:round;stroke-miterlimit:10;}
	.st75{fill:#627B8C;stroke:#45413C;stroke-linecap:round;stroke-linejoin:round;stroke-miterlimit:10;}
	.st76{fill:#8CA4B8;}
	.st77{fill:#00DBA8;stroke:#45413C;stroke-linecap:round;stroke-linejoin:round;stroke-miterlimit:10;}
	.st78{fill:#FF8A14;}
	.st79{fill:#BF8256;}
	.st80{fill:#DEA47A;}
	.st81{fill:#915E3A;}
	.st82{fill:#FFA694;}
	.st83{fill:#E5FEFF;stroke:#45413C;stroke-linecap:round;stroke-linejoin:round;stroke-miterlimit:10;}
	.st84{fill:#803EC2;stroke:#45413C;stroke-linecap:round;stroke-linejoin:round;stroke-miterlimit:10;}
	.st85{fill:#9F5AE5;}
	.st86{fill:#803EC2;}
</style>
<g>
	<path class="st35" d="M46.5,11.3c-1.1-0.6-2.6,0.1-2.8,1.4c-0.4,2.6-2,4.9-4.4,6.2c0,0.3,0,0.7,0,1.1c0,3.2,0.1,5.9,0.3,8.2
		l1.8-1.9c3.4-3.6,5.5-8.2,5.9-13.2C47.6,12.4,47.2,11.6,46.5,11.3z"/>
	<path class="st35" d="M8.2,28.1c0.2-2.3,0.3-5,0.3-8.2c0-0.4,0-0.7,0-1.1c-2.3-1.3-4-3.6-4.4-6.2c-0.2-1.3-1.6-2-2.8-1.4
		c-0.7,0.4-1,1.1-1,1.8C0.9,18,3,22.7,6.4,26.2L8.2,28.1z"/>
	<path id="XMLID_1516_" class="st38" d="M39.4,19.9c0-8.5-6.9-15.4-15.4-15.4S8.6,11.4,8.6,19.9c0,18.1-4.3,19.7-2.7,19.7
		c3.8,0,4.6-1.9,6.9-1.9s3.1,1.9,5.8,1.9s3.1-1.9,5.4-1.9s2.7,1.9,5.4,1.9s3.5-1.9,5.8-1.9c2.3,0,3.2,1.9,6.9,1.9
		C43.7,39.6,39.4,38.1,39.4,19.9z"/>
	<path id="XMLID_1515_" class="st46" d="M35.9,35.5c-2.5,0-3.3,1.9-6.2,1.9c-2.9,0-3.3-1.9-5.8-1.9s-2.9,1.9-5.8,1.9
		c-2.9,0-3.7-1.9-6.2-1.9c-2.1,0-3.1,1.3-5.7,1.8c-0.8,2.1-1.3,2.4-0.5,2.4c3.8,0,4.6-1.9,6.9-1.9s3.1,1.9,5.8,1.9s3.1-1.9,5.4-1.9
		s2.7,1.9,5.4,1.9s3.5-1.9,5.8-1.9c2.3,0,3.2,1.9,6.9,1.9c0.7,0,0.2-0.3-0.5-2.4C39,36.8,38,35.5,35.9,35.5z"/>
	<ellipse id="XMLID_1514_" class="st39" cx="24" cy="7.6" rx="4.6" ry="1.2"/>
	<ellipse id="XMLID_1513_" class="st3" cx="24" cy="44.5" rx="17.5" ry="1.5"/>
	<ellipse id="XMLID_1512_" class="st5" cx="14.7" cy="23.8" rx="1.9" ry="1.2"/>
	<ellipse id="XMLID_1511_" class="st46" cx="14.7" cy="23.8" rx="1.9" ry="1.2"/>
	<ellipse id="XMLID_1510_" class="st46" cx="33.3" cy="23.8" rx="1.9" ry="1.2"/>
	<circle id="XMLID_538_" class="st17" cx="30.6" cy="18.4" r="2.7"/>
	<path id="XMLID_536_" class="st64" d="M30.6,17.2c1.2,0,2.2,0.8,2.6,1.9c0.1-0.2,0.1-0.5,0.1-0.8c0-1.5-1.2-2.7-2.7-2.7
		s-2.7,1.2-2.7,2.7c0,0.3,0.1,0.5,0.1,0.8C28.3,18.1,29.3,17.2,30.6,17.2z"/>
	<circle id="XMLID_534_" class="st4" cx="30.6" cy="18.4" r="2.7"/>
	<circle id="XMLID_533_" class="st17" cx="17.4" cy="17.2" r="3.9"/>
	<path id="XMLID_1505_" class="st64" d="M17.4,15.3c1.8,0,3.3,1.2,3.7,2.9c0.1-0.3,0.1-0.6,0.1-1c0-2.1-1.7-3.9-3.9-3.9
		s-3.9,1.7-3.9,3.9c0,0.3,0.1,0.7,0.1,1C14.1,16.5,15.6,15.3,17.4,15.3z"/>
	<circle id="XMLID_1504_" class="st4" cx="17.4" cy="17.2" r="3.9"/>
	<path id="XMLID_1503_" class="st4" d="M39.4,19.9c0-8.5-6.9-15.4-15.4-15.4S8.6,11.4,8.6,19.9c0,18.1-4.3,19.7-2.7,19.7
		c3.8,0,4.6-1.9,6.9-1.9s3.1,1.9,5.8,1.9s3.1-1.9,5.4-1.9s2.7,1.9,5.4,1.9s3.5-1.9,5.8-1.9c2.3,0,3.2,1.9,6.9,1.9
		C43.7,39.6,39.4,38.1,39.4,19.9z"/>
	<g id="XMLID_1501_">
		<path id="XMLID_1502_" class="st6" d="M18.2,25.7c0.4,6.2,3.9,8.5,5.3,9.2c0.3,0.2,0.7,0.2,1.1,0c1.4-0.8,4.9-3,5.3-9.2
			c0-0.6-0.4-1.1-1.1-1.1h-9.5C18.6,24.6,18.2,25.1,18.2,25.7z"/>
	</g>
	<g id="XMLID_1497_">
		<path id="XMLID_1500_" class="st15" d="M24,29.6c0-1.2,3.5-0.8,3.5,0.4v5c0,1.9-1.6,3.5-3.5,3.5s-3.5-1.6-3.5-3.5v-5
			C20.5,28.8,24,28.4,24,29.6z"/>
		<path id="XMLID_1499_" class="st16" d="M24,29.6c0-1.2-3.5-0.8-3.5,0.4v1.5c0-1.2,6.9-1.2,6.9,0V30C27.5,28.8,24,28.4,24,29.6z"/>
		<path id="XMLID_1498_" class="st4" d="M24,29.6c0-1.2,3.5-0.8,3.5,0.4v5c0,1.9-1.6,3.5-3.5,3.5s-3.5-1.6-3.5-3.5v-5
			C20.5,28.8,24,28.4,24,29.6z"/>
	</g>
</g>
</svg>
